<?xml version="1.0" encoding="UTF-8" standalone="no"?>
<!DOCTYPE svg PUBLIC "-//W3C//DTD SVG 1.1//EN" "http://www.w3.org/Graphics/SVG/1.1/DTD/svg11.dtd">
<svg width="100%" height="100%" viewBox="0 0 1080 1080" version="1.1" xmlns="http://www.w3.org/2000/svg"
     xml:space="preserve"
     style="fill-rule:evenodd;clip-rule:evenodd;stroke-linejoin:round;stroke-miterlimit:2;">
    <g transform="matrix(1.02372,0,0,1.02372,-25.6156,-25.6156)">
        <path d="M1080,288.767C1080,143.202 961.82,25.022 816.256,25.022L288.767,25.022C143.202,25.022 25.022,143.202 25.022,288.767L25.022,816.256C25.022,961.82 143.202,1080 288.767,1080L816.256,1080C961.82,1080 1080,961.82 1080,816.256L1080,288.767Z"
              style="fill:white;"/>
    </g>
    <g id="Layer1" transform="matrix(0.835081,0,0,0.832998,93.2134,65.1914)">
        <path d="M961.591,224.016C1015.88,306.853 1045.02,403.968 1045.02,503.55C1045.02,785.027 816.499,1013.55 535.022,1013.55C253.545,1013.55 25.022,785.027 25.022,503.55C25.022,457.679 31.209,412.196 43.284,368.297C66.051,271.987 123.474,189.251 201.433,134.392L276.917,244.672C318.953,215.092 370.003,197.747 425.022,197.747C480.041,197.747 531.091,215.092 573.127,244.672L648.611,134.392C750.661,206.204 817.522,325.782 817.522,461.05C817.522,556.369 784.322,643.897 729.004,712.41L728.342,711.738C603.598,834.327 462.173,794.243 398.358,765.96L424.495,704.681L245.992,758.371L330.796,924.365L356.583,863.905C445.458,902.332 635.448,953.014 803.324,788.038L802.536,787.236C877.934,716.104 925.022,615.283 925.022,503.55C925.022,428.952 903.634,356.163 863.737,293.676L817.522,326.575L817.882,126.45L1007.1,191.62L961.591,224.016Z"
              style="fill:rgb(41,41,41);stroke:rgb(63,63,63);stroke-width:15.97px;"/>
        <g transform="matrix(1,0,0,1.09971,-1.30862,-67.6781)">
            <path d="M432.271,502.581C446.521,502.581 482.147,547.146 475.022,556.059C467.897,564.972 396.645,564.972 389.519,556.059C382.394,547.146 418.02,502.581 432.271,502.581Z"
                  style="fill:white;"/>
        </g>
        <g transform="matrix(1,0,0,1,0,-33.0804)">
            <path d="M590.995,391.176C635.148,391.176 670.995,427.023 670.995,471.177C670.995,515.33 635.148,551.177 590.995,551.177C546.841,551.177 510.994,515.33 510.994,471.177C510.994,427.023 546.841,391.176 590.995,391.176ZM270.929,391.176C315.083,391.176 350.929,427.023 350.929,471.177C350.929,515.33 315.083,551.177 270.929,551.177C226.776,551.177 190.929,515.33 190.929,471.177C190.929,427.023 226.776,391.176 270.929,391.176Z"
                  style="fill:white;"/>
            <path d="M590.995,383.181C615.25,383.181 637.226,393.019 653.146,408.919C669.099,424.852 678.971,446.871 678.971,471.177C678.971,495.482 669.099,517.501 653.146,533.434C637.226,549.334 615.25,559.173 590.995,559.173C566.739,559.173 544.763,549.334 528.843,533.434C512.89,517.501 503.019,495.482 503.019,471.177C503.019,446.871 512.89,424.852 528.843,408.919C544.763,393.019 566.739,383.181 590.995,383.181ZM590.995,399.172C571.133,399.172 553.138,407.228 540.102,420.248C527.051,433.283 518.97,451.293 518.97,471.177C518.97,491.06 527.051,509.071 540.102,522.105C553.138,535.125 571.133,543.181 590.995,543.181C610.856,543.181 628.851,535.125 641.888,522.105C654.938,509.071 663.019,491.06 663.019,471.177C663.019,451.293 654.938,433.283 641.888,420.248C628.851,407.228 610.856,399.172 590.995,399.172ZM270.929,383.181C295.185,383.181 317.161,393.019 333.081,408.919C349.034,424.852 358.905,446.871 358.905,471.177C358.905,495.482 349.034,517.501 333.081,533.434C317.161,549.334 295.185,559.173 270.929,559.173C246.674,559.173 224.698,549.334 208.778,533.434C192.825,517.501 182.953,495.482 182.953,471.177C182.953,446.871 192.825,424.852 208.778,408.919C224.698,393.019 246.674,383.181 270.929,383.181ZM270.929,399.172C251.068,399.172 233.072,407.228 220.036,420.248C206.986,433.283 198.905,451.293 198.905,471.177C198.905,491.06 206.986,509.071 220.036,522.105C233.072,535.125 251.068,543.181 270.929,543.181C290.791,543.181 308.786,535.125 321.822,522.105C334.873,509.071 342.954,491.06 342.954,471.177C342.954,451.293 334.873,433.283 321.822,420.248C308.786,407.228 290.791,399.172 270.929,399.172Z"
                  style="fill:rgb(63,63,63);"/>
        </g>
        <path d="M575.686,422.904C595.381,422.904 611.372,438.991 611.372,458.806C611.372,478.621 595.381,494.708 575.686,494.708C555.99,494.708 540,478.621 540,458.806C540,438.991 555.99,422.904 575.686,422.904ZM288.902,422.904C308.598,422.904 324.588,438.991 324.588,458.806C324.588,478.621 308.598,494.708 288.902,494.708C269.207,494.708 253.216,478.621 253.216,458.806C253.216,438.991 269.207,422.904 288.902,422.904Z"
              style="fill:rgb(63,63,63);"/>
    </g>
</svg>
